<mxfile host="app.diagrams.net" modified="2023-11-07T02:41:26.635Z" agent="Mozilla/5.0 (Windows NT 10.0; Win64; x64) AppleWebKit/537.36 (KHTML, like Gecko) Chrome/116.0.0.0 Safari/537.36" etag="XJDKqCmrTXPyyJ4siDVq" version="21.1.2" type="github">
  <diagram name="第 1 页" id="B2Zz0Hlr58g3wdDetUJ_">
    <mxGraphModel dx="1208" dy="733" grid="1" gridSize="10" guides="1" tooltips="1" connect="1" arrows="1" fold="1" page="1" pageScale="1" pageWidth="827" pageHeight="1169" math="0" shadow="0">
      <root>
        <mxCell id="0" />
        <mxCell id="1" parent="0" />
        <mxCell id="uMjrn02Cv8AeN9vqpwiP-1" value="tgw" style="rounded=0;whiteSpace=wrap;html=1;" parent="1" vertex="1">
          <mxGeometry x="160" y="200" width="60" height="30" as="geometry" />
        </mxCell>
        <mxCell id="uMjrn02Cv8AeN9vqpwiP-3" value="tgw" style="rounded=0;whiteSpace=wrap;html=1;" parent="1" vertex="1">
          <mxGeometry x="240" y="200" width="60" height="30" as="geometry" />
        </mxCell>
        <mxCell id="uMjrn02Cv8AeN9vqpwiP-4" value="tproxy" style="rounded=0;whiteSpace=wrap;html=1;" parent="1" vertex="1">
          <mxGeometry x="190" y="130" width="80" height="30" as="geometry" />
        </mxCell>
        <mxCell id="uMjrn02Cv8AeN9vqpwiP-7" value="" style="endArrow=none;html=1;rounded=0;entryX=0.5;entryY=1;entryDx=0;entryDy=0;exitX=0.5;exitY=0;exitDx=0;exitDy=0;" parent="1" source="uMjrn02Cv8AeN9vqpwiP-1" target="uMjrn02Cv8AeN9vqpwiP-4" edge="1">
          <mxGeometry width="50" height="50" relative="1" as="geometry">
            <mxPoint x="150" y="200" as="sourcePoint" />
            <mxPoint x="190" y="160" as="targetPoint" />
          </mxGeometry>
        </mxCell>
        <mxCell id="uMjrn02Cv8AeN9vqpwiP-9" value="" style="endArrow=none;html=1;rounded=0;exitX=0.5;exitY=0;exitDx=0;exitDy=0;entryX=0.5;entryY=1;entryDx=0;entryDy=0;" parent="1" source="uMjrn02Cv8AeN9vqpwiP-3" target="uMjrn02Cv8AeN9vqpwiP-4" edge="1">
          <mxGeometry width="50" height="50" relative="1" as="geometry">
            <mxPoint x="230" y="200" as="sourcePoint" />
            <mxPoint x="230" y="170" as="targetPoint" />
          </mxGeometry>
        </mxCell>
        <mxCell id="uMjrn02Cv8AeN9vqpwiP-11" value="" style="endArrow=none;dashed=1;html=1;rounded=0;" parent="1" edge="1">
          <mxGeometry width="50" height="50" relative="1" as="geometry">
            <mxPoint x="330" y="280" as="sourcePoint" />
            <mxPoint x="330" y="90" as="targetPoint" />
          </mxGeometry>
        </mxCell>
        <mxCell id="uMjrn02Cv8AeN9vqpwiP-12" value="tgw" style="rounded=0;whiteSpace=wrap;html=1;strokeWidth=1;shadow=0;glass=0;fillColor=#dae8fc;strokeColor=#6c8ebf;" parent="1" vertex="1">
          <mxGeometry x="350" y="200" width="40" height="30" as="geometry" />
        </mxCell>
        <mxCell id="uMjrn02Cv8AeN9vqpwiP-14" value="&lt;font style=&quot;font-size: 8px;&quot;&gt;mesh&lt;/font&gt;" style="rounded=0;whiteSpace=wrap;html=1;fontSize=8;strokeWidth=1;shadow=0;glass=0;fillColor=#dae8fc;strokeColor=#6c8ebf;" parent="1" vertex="1">
          <mxGeometry x="390" y="200" width="40" height="30" as="geometry" />
        </mxCell>
        <mxCell id="uMjrn02Cv8AeN9vqpwiP-15" value="" style="shape=cylinder3;whiteSpace=wrap;html=1;boundedLbl=1;backgroundOutline=1;size=8.271772112165138;" parent="1" vertex="1">
          <mxGeometry x="50" y="60" width="35" height="30" as="geometry" />
        </mxCell>
        <mxCell id="uMjrn02Cv8AeN9vqpwiP-17" value="Polaris" style="ellipse;shape=cloud;whiteSpace=wrap;html=1;" parent="1" vertex="1">
          <mxGeometry x="376" y="120" width="96" height="40" as="geometry" />
        </mxCell>
        <mxCell id="uMjrn02Cv8AeN9vqpwiP-23" value="" style="endArrow=none;html=1;rounded=0;entryX=0.5;entryY=1;entryDx=0;entryDy=0;exitX=0.5;exitY=0;exitDx=0;exitDy=0;" parent="1" source="uMjrn02Cv8AeN9vqpwiP-12" target="uMjrn02Cv8AeN9vqpwiP-4" edge="1">
          <mxGeometry width="50" height="50" relative="1" as="geometry">
            <mxPoint x="430" y="320" as="sourcePoint" />
            <mxPoint x="480" y="270" as="targetPoint" />
          </mxGeometry>
        </mxCell>
        <mxCell id="uMjrn02Cv8AeN9vqpwiP-24" value="" style="endArrow=none;html=1;rounded=0;entryX=0.55;entryY=0.95;entryDx=0;entryDy=0;exitX=0.5;exitY=0;exitDx=0;exitDy=0;entryPerimeter=0;fillColor=#d5e8d4;strokeColor=#82b366;" parent="1" source="uMjrn02Cv8AeN9vqpwiP-14" target="uMjrn02Cv8AeN9vqpwiP-17" edge="1">
          <mxGeometry width="50" height="50" relative="1" as="geometry">
            <mxPoint x="385" y="210" as="sourcePoint" />
            <mxPoint x="240" y="170" as="targetPoint" />
          </mxGeometry>
        </mxCell>
        <mxCell id="uMjrn02Cv8AeN9vqpwiP-27" style="rounded=0;orthogonalLoop=1;jettySize=auto;html=1;exitX=0.5;exitY=0;exitDx=0;exitDy=0;entryX=0.5;entryY=1;entryDx=0;entryDy=0;endArrow=none;endFill=0;" parent="1" source="uMjrn02Cv8AeN9vqpwiP-25" target="uMjrn02Cv8AeN9vqpwiP-1" edge="1">
          <mxGeometry relative="1" as="geometry" />
        </mxCell>
        <mxCell id="uMjrn02Cv8AeN9vqpwiP-25" value="svr" style="ellipse;whiteSpace=wrap;html=1;aspect=fixed;" parent="1" vertex="1">
          <mxGeometry x="175" y="250" width="30" height="30" as="geometry" />
        </mxCell>
        <mxCell id="uMjrn02Cv8AeN9vqpwiP-28" style="rounded=0;orthogonalLoop=1;jettySize=auto;html=1;exitX=0.5;exitY=0;exitDx=0;exitDy=0;entryX=0.5;entryY=1;entryDx=0;entryDy=0;endArrow=none;endFill=0;" parent="1" source="uMjrn02Cv8AeN9vqpwiP-26" target="uMjrn02Cv8AeN9vqpwiP-3" edge="1">
          <mxGeometry relative="1" as="geometry" />
        </mxCell>
        <mxCell id="uMjrn02Cv8AeN9vqpwiP-26" value="svr" style="ellipse;whiteSpace=wrap;html=1;aspect=fixed;" parent="1" vertex="1">
          <mxGeometry x="255" y="250" width="30" height="30" as="geometry" />
        </mxCell>
        <mxCell id="uMjrn02Cv8AeN9vqpwiP-29" value="svr" style="ellipse;whiteSpace=wrap;html=1;aspect=fixed;" parent="1" vertex="1">
          <mxGeometry x="455" y="250" width="30" height="30" as="geometry" />
        </mxCell>
        <mxCell id="uMjrn02Cv8AeN9vqpwiP-31" value="&lt;font style=&quot;font-size: 8px;&quot;&gt;mesh&lt;/font&gt;" style="rounded=0;whiteSpace=wrap;html=1;fontSize=8;" parent="1" vertex="1">
          <mxGeometry x="450" y="200" width="40" height="30" as="geometry" />
        </mxCell>
        <mxCell id="uMjrn02Cv8AeN9vqpwiP-32" value="" style="endArrow=none;html=1;rounded=0;entryX=0.55;entryY=0.95;entryDx=0;entryDy=0;exitX=0.5;exitY=0;exitDx=0;exitDy=0;entryPerimeter=0;fillColor=#d5e8d4;strokeColor=#82b366;" parent="1" source="uMjrn02Cv8AeN9vqpwiP-31" target="uMjrn02Cv8AeN9vqpwiP-17" edge="1">
          <mxGeometry width="50" height="50" relative="1" as="geometry">
            <mxPoint x="415" y="210" as="sourcePoint" />
            <mxPoint x="433" y="138" as="targetPoint" />
          </mxGeometry>
        </mxCell>
        <mxCell id="uMjrn02Cv8AeN9vqpwiP-33" style="rounded=0;orthogonalLoop=1;jettySize=auto;html=1;entryX=0.5;entryY=1;entryDx=0;entryDy=0;endArrow=none;endFill=0;" parent="1" source="uMjrn02Cv8AeN9vqpwiP-29" target="uMjrn02Cv8AeN9vqpwiP-31" edge="1">
          <mxGeometry relative="1" as="geometry">
            <mxPoint x="280" y="260" as="sourcePoint" />
            <mxPoint x="280" y="240" as="targetPoint" />
          </mxGeometry>
        </mxCell>
        <mxCell id="uMjrn02Cv8AeN9vqpwiP-34" value="" style="endArrow=none;html=1;rounded=0;entryX=0.55;entryY=0.95;entryDx=0;entryDy=0;entryPerimeter=0;fillColor=#d5e8d4;strokeColor=#82b366;" parent="1" edge="1">
          <mxGeometry width="50" height="50" relative="1" as="geometry">
            <mxPoint x="515" y="90" as="sourcePoint" />
            <mxPoint x="485" y="90" as="targetPoint" />
          </mxGeometry>
        </mxCell>
        <mxCell id="uMjrn02Cv8AeN9vqpwiP-35" value="控制流" style="text;html=1;strokeColor=none;fillColor=none;align=center;verticalAlign=middle;whiteSpace=wrap;rounded=0;" parent="1" vertex="1">
          <mxGeometry x="515" y="80" width="50" height="20" as="geometry" />
        </mxCell>
        <mxCell id="uMjrn02Cv8AeN9vqpwiP-36" value="" style="endArrow=none;html=1;rounded=0;entryX=0.5;entryY=1;entryDx=0;entryDy=0;" parent="1" edge="1">
          <mxGeometry width="50" height="50" relative="1" as="geometry">
            <mxPoint x="515" y="110" as="sourcePoint" />
            <mxPoint x="485" y="110" as="targetPoint" />
            <Array as="points">
              <mxPoint x="515" y="110" />
            </Array>
          </mxGeometry>
        </mxCell>
        <mxCell id="uMjrn02Cv8AeN9vqpwiP-37" value="数据流" style="text;html=1;strokeColor=none;fillColor=none;align=center;verticalAlign=middle;whiteSpace=wrap;rounded=0;" parent="1" vertex="1">
          <mxGeometry x="515" y="100" width="50" height="20" as="geometry" />
        </mxCell>
        <mxCell id="uMjrn02Cv8AeN9vqpwiP-38" value="tgw" style="rounded=0;whiteSpace=wrap;html=1;" parent="1" vertex="1">
          <mxGeometry x="160" y="770" width="60" height="30" as="geometry" />
        </mxCell>
        <mxCell id="uMjrn02Cv8AeN9vqpwiP-39" value="tgw" style="rounded=0;whiteSpace=wrap;html=1;" parent="1" vertex="1">
          <mxGeometry x="240" y="770" width="60" height="30" as="geometry" />
        </mxCell>
        <mxCell id="uMjrn02Cv8AeN9vqpwiP-40" value="tproxy" style="rounded=0;whiteSpace=wrap;html=1;fontSize=10;" parent="1" vertex="1">
          <mxGeometry x="190" y="700" width="80" height="30" as="geometry" />
        </mxCell>
        <mxCell id="uMjrn02Cv8AeN9vqpwiP-41" value="" style="endArrow=none;html=1;rounded=0;entryX=0.5;entryY=1;entryDx=0;entryDy=0;exitX=0.5;exitY=0;exitDx=0;exitDy=0;" parent="1" source="uMjrn02Cv8AeN9vqpwiP-38" target="uMjrn02Cv8AeN9vqpwiP-40" edge="1">
          <mxGeometry width="50" height="50" relative="1" as="geometry">
            <mxPoint x="150" y="770" as="sourcePoint" />
            <mxPoint x="190" y="730" as="targetPoint" />
          </mxGeometry>
        </mxCell>
        <mxCell id="uMjrn02Cv8AeN9vqpwiP-42" value="" style="endArrow=none;html=1;rounded=0;exitX=0.5;exitY=0;exitDx=0;exitDy=0;entryX=0.5;entryY=1;entryDx=0;entryDy=0;" parent="1" source="uMjrn02Cv8AeN9vqpwiP-39" target="uMjrn02Cv8AeN9vqpwiP-40" edge="1">
          <mxGeometry width="50" height="50" relative="1" as="geometry">
            <mxPoint x="230" y="770" as="sourcePoint" />
            <mxPoint x="230" y="740" as="targetPoint" />
          </mxGeometry>
        </mxCell>
        <mxCell id="uMjrn02Cv8AeN9vqpwiP-43" value="" style="endArrow=none;dashed=1;html=1;rounded=0;" parent="1" edge="1">
          <mxGeometry width="50" height="50" relative="1" as="geometry">
            <mxPoint x="330" y="850" as="sourcePoint" />
            <mxPoint x="330" y="690" as="targetPoint" />
          </mxGeometry>
        </mxCell>
        <mxCell id="uMjrn02Cv8AeN9vqpwiP-45" value="tgw" style="rounded=0;whiteSpace=wrap;html=1;fontSize=8;" parent="1" vertex="1">
          <mxGeometry x="350" y="770" width="60" height="30" as="geometry" />
        </mxCell>
        <mxCell id="uMjrn02Cv8AeN9vqpwiP-46" value="Polaris" style="ellipse;shape=cloud;whiteSpace=wrap;html=1;" parent="1" vertex="1">
          <mxGeometry x="280" y="620" width="96" height="40" as="geometry" />
        </mxCell>
        <mxCell id="uMjrn02Cv8AeN9vqpwiP-47" value="" style="endArrow=none;html=1;rounded=0;entryX=0.5;entryY=1;entryDx=0;entryDy=0;exitX=0.5;exitY=0;exitDx=0;exitDy=0;" parent="1" target="uMjrn02Cv8AeN9vqpwiP-40" edge="1">
          <mxGeometry width="50" height="50" relative="1" as="geometry">
            <mxPoint x="375" y="770" as="sourcePoint" />
            <mxPoint x="480" y="840" as="targetPoint" />
          </mxGeometry>
        </mxCell>
        <mxCell id="uMjrn02Cv8AeN9vqpwiP-48" value="" style="endArrow=none;html=1;rounded=0;entryX=0.55;entryY=0.95;entryDx=0;entryDy=0;exitX=0.5;exitY=0;exitDx=0;exitDy=0;entryPerimeter=0;fillColor=#d5e8d4;strokeColor=#82b366;" parent="1" source="uMjrn02Cv8AeN9vqpwiP-45" target="uMjrn02Cv8AeN9vqpwiP-46" edge="1">
          <mxGeometry width="50" height="50" relative="1" as="geometry">
            <mxPoint x="385" y="780" as="sourcePoint" />
            <mxPoint x="240" y="740" as="targetPoint" />
          </mxGeometry>
        </mxCell>
        <mxCell id="uMjrn02Cv8AeN9vqpwiP-49" style="rounded=0;orthogonalLoop=1;jettySize=auto;html=1;exitX=0.5;exitY=0;exitDx=0;exitDy=0;entryX=0.5;entryY=1;entryDx=0;entryDy=0;endArrow=none;endFill=0;" parent="1" source="uMjrn02Cv8AeN9vqpwiP-50" target="uMjrn02Cv8AeN9vqpwiP-38" edge="1">
          <mxGeometry relative="1" as="geometry" />
        </mxCell>
        <mxCell id="uMjrn02Cv8AeN9vqpwiP-50" value="svr" style="ellipse;whiteSpace=wrap;html=1;aspect=fixed;" parent="1" vertex="1">
          <mxGeometry x="175" y="820" width="30" height="30" as="geometry" />
        </mxCell>
        <mxCell id="uMjrn02Cv8AeN9vqpwiP-51" style="rounded=0;orthogonalLoop=1;jettySize=auto;html=1;exitX=0.5;exitY=0;exitDx=0;exitDy=0;entryX=0.5;entryY=1;entryDx=0;entryDy=0;endArrow=none;endFill=0;" parent="1" source="uMjrn02Cv8AeN9vqpwiP-52" target="uMjrn02Cv8AeN9vqpwiP-39" edge="1">
          <mxGeometry relative="1" as="geometry" />
        </mxCell>
        <mxCell id="uMjrn02Cv8AeN9vqpwiP-52" value="svr" style="ellipse;whiteSpace=wrap;html=1;aspect=fixed;" parent="1" vertex="1">
          <mxGeometry x="255" y="820" width="30" height="30" as="geometry" />
        </mxCell>
        <mxCell id="uMjrn02Cv8AeN9vqpwiP-53" value="svr" style="ellipse;whiteSpace=wrap;html=1;aspect=fixed;" parent="1" vertex="1">
          <mxGeometry x="440" y="820" width="30" height="30" as="geometry" />
        </mxCell>
        <mxCell id="uMjrn02Cv8AeN9vqpwiP-54" value="tgw" style="rounded=0;whiteSpace=wrap;html=1;fontSize=12;" parent="1" vertex="1">
          <mxGeometry x="425" y="770" width="60" height="30" as="geometry" />
        </mxCell>
        <mxCell id="uMjrn02Cv8AeN9vqpwiP-55" value="" style="endArrow=none;html=1;rounded=0;entryX=0.55;entryY=0.95;entryDx=0;entryDy=0;exitX=0.5;exitY=0;exitDx=0;exitDy=0;entryPerimeter=0;fillColor=#d5e8d4;strokeColor=#82b366;" parent="1" source="uMjrn02Cv8AeN9vqpwiP-54" target="uMjrn02Cv8AeN9vqpwiP-46" edge="1">
          <mxGeometry width="50" height="50" relative="1" as="geometry">
            <mxPoint x="415" y="780" as="sourcePoint" />
            <mxPoint x="433" y="708" as="targetPoint" />
          </mxGeometry>
        </mxCell>
        <mxCell id="uMjrn02Cv8AeN9vqpwiP-56" style="rounded=0;orthogonalLoop=1;jettySize=auto;html=1;entryX=0.5;entryY=1;entryDx=0;entryDy=0;endArrow=none;endFill=0;" parent="1" source="uMjrn02Cv8AeN9vqpwiP-53" target="uMjrn02Cv8AeN9vqpwiP-54" edge="1">
          <mxGeometry relative="1" as="geometry">
            <mxPoint x="280" y="830" as="sourcePoint" />
            <mxPoint x="280" y="810" as="targetPoint" />
          </mxGeometry>
        </mxCell>
        <mxCell id="uMjrn02Cv8AeN9vqpwiP-59" value="" style="endArrow=none;html=1;rounded=0;entryX=0.55;entryY=0.95;entryDx=0;entryDy=0;exitX=0.5;exitY=0;exitDx=0;exitDy=0;entryPerimeter=0;fillColor=#d5e8d4;strokeColor=#82b366;" parent="1" source="uMjrn02Cv8AeN9vqpwiP-40" target="uMjrn02Cv8AeN9vqpwiP-46" edge="1">
          <mxGeometry width="50" height="50" relative="1" as="geometry">
            <mxPoint x="420" y="780" as="sourcePoint" />
            <mxPoint x="452" y="708" as="targetPoint" />
          </mxGeometry>
        </mxCell>
        <mxCell id="uMjrn02Cv8AeN9vqpwiP-60" value="" style="endArrow=none;html=1;rounded=0;entryX=0.55;entryY=0.95;entryDx=0;entryDy=0;entryPerimeter=0;fillColor=#d5e8d4;strokeColor=#82b366;" parent="1" edge="1">
          <mxGeometry width="50" height="50" relative="1" as="geometry">
            <mxPoint x="490" y="640" as="sourcePoint" />
            <mxPoint x="460" y="640" as="targetPoint" />
          </mxGeometry>
        </mxCell>
        <mxCell id="uMjrn02Cv8AeN9vqpwiP-61" value="控制流" style="text;html=1;strokeColor=none;fillColor=none;align=center;verticalAlign=middle;whiteSpace=wrap;rounded=0;" parent="1" vertex="1">
          <mxGeometry x="490" y="630" width="50" height="20" as="geometry" />
        </mxCell>
        <mxCell id="uMjrn02Cv8AeN9vqpwiP-62" value="" style="endArrow=none;html=1;rounded=0;entryX=0.5;entryY=1;entryDx=0;entryDy=0;" parent="1" edge="1">
          <mxGeometry width="50" height="50" relative="1" as="geometry">
            <mxPoint x="490" y="660" as="sourcePoint" />
            <mxPoint x="460" y="660" as="targetPoint" />
          </mxGeometry>
        </mxCell>
        <mxCell id="uMjrn02Cv8AeN9vqpwiP-63" value="数据流" style="text;html=1;strokeColor=none;fillColor=none;align=center;verticalAlign=middle;whiteSpace=wrap;rounded=0;" parent="1" vertex="1">
          <mxGeometry x="490" y="650" width="50" height="20" as="geometry" />
        </mxCell>
        <mxCell id="uMjrn02Cv8AeN9vqpwiP-64" value="svr" style="ellipse;whiteSpace=wrap;html=1;aspect=fixed;" parent="1" vertex="1">
          <mxGeometry x="365" y="820" width="30" height="30" as="geometry" />
        </mxCell>
        <mxCell id="uMjrn02Cv8AeN9vqpwiP-66" style="rounded=0;orthogonalLoop=1;jettySize=auto;html=1;entryX=0.5;entryY=1;entryDx=0;entryDy=0;endArrow=none;endFill=0;exitX=0.5;exitY=0;exitDx=0;exitDy=0;" parent="1" source="uMjrn02Cv8AeN9vqpwiP-64" target="uMjrn02Cv8AeN9vqpwiP-45" edge="1">
          <mxGeometry relative="1" as="geometry">
            <mxPoint x="445" y="830" as="sourcePoint" />
            <mxPoint x="445" y="810" as="targetPoint" />
          </mxGeometry>
        </mxCell>
        <mxCell id="ys65B-gIA9UQSPF6JAvR-1" value="网关" style="text;html=1;strokeColor=none;fillColor=none;align=center;verticalAlign=middle;whiteSpace=wrap;rounded=0;" vertex="1" parent="1">
          <mxGeometry x="364" y="230" width="50" height="20" as="geometry" />
        </mxCell>
        <mxCell id="ys65B-gIA9UQSPF6JAvR-2" value="" style="endArrow=none;html=1;rounded=0;entryX=1;entryY=0.5;entryDx=0;entryDy=0;exitX=0;exitY=0.5;exitDx=0;exitDy=0;" edge="1" parent="1" source="uMjrn02Cv8AeN9vqpwiP-31" target="uMjrn02Cv8AeN9vqpwiP-14">
          <mxGeometry width="50" height="50" relative="1" as="geometry">
            <mxPoint x="385" y="210" as="sourcePoint" />
            <mxPoint x="240" y="170" as="targetPoint" />
          </mxGeometry>
        </mxCell>
        <mxCell id="ys65B-gIA9UQSPF6JAvR-3" value="" style="endArrow=none;html=1;rounded=0;entryX=1;entryY=0.5;entryDx=0;entryDy=0;" edge="1" parent="1" source="uMjrn02Cv8AeN9vqpwiP-54" target="uMjrn02Cv8AeN9vqpwiP-45">
          <mxGeometry width="50" height="50" relative="1" as="geometry">
            <mxPoint x="460" y="505" as="sourcePoint" />
            <mxPoint x="440" y="505" as="targetPoint" />
          </mxGeometry>
        </mxCell>
        <mxCell id="ys65B-gIA9UQSPF6JAvR-7" value="tproxy 做服务发现" style="text;strokeColor=none;fillColor=none;align=center;verticalAlign=middle;whiteSpace=wrap;rounded=0;fontSize=10;" vertex="1" parent="1">
          <mxGeometry x="200" y="670" width="80" height="20" as="geometry" />
        </mxCell>
        <mxCell id="ys65B-gIA9UQSPF6JAvR-12" value="" style="endArrow=none;html=1;rounded=0;exitX=0.5;exitY=0;exitDx=0;exitDy=0;" edge="1" parent="1" source="uMjrn02Cv8AeN9vqpwiP-54">
          <mxGeometry width="50" height="50" relative="1" as="geometry">
            <mxPoint x="385" y="780" as="sourcePoint" />
            <mxPoint x="230" y="730" as="targetPoint" />
          </mxGeometry>
        </mxCell>
        <mxCell id="ys65B-gIA9UQSPF6JAvR-15" value="&lt;span style=&quot;color: rgb(0, 0, 0); font-family: &amp;quot;Times New Roman&amp;quot;; font-size: 8px; font-style: normal; font-variant-ligatures: normal; font-variant-caps: normal; font-weight: 400; letter-spacing: normal; orphans: 2; text-align: center; text-indent: 0px; text-transform: none; widows: 2; word-spacing: 0px; -webkit-text-stroke-width: 0px; background-color: rgb(251, 251, 251); text-decoration-thickness: initial; text-decoration-style: initial; text-decoration-color: initial; float: none; display: inline !important;&quot;&gt;云上服务，直连；&lt;/span&gt;&lt;br style=&quot;border-color: var(--border-color); color: rgb(0, 0, 0); font-family: &amp;quot;Times New Roman&amp;quot;; font-size: 8px; font-style: normal; font-variant-ligatures: normal; font-variant-caps: normal; font-weight: 400; letter-spacing: normal; orphans: 2; text-align: center; text-indent: 0px; text-transform: none; widows: 2; word-spacing: 0px; -webkit-text-stroke-width: 0px; background-color: rgb(251, 251, 251); text-decoration-thickness: initial; text-decoration-style: initial; text-decoration-color: initial;&quot;&gt;&lt;span style=&quot;color: rgb(0, 0, 0); font-family: &amp;quot;Times New Roman&amp;quot;; font-size: 8px; font-style: normal; font-variant-ligatures: normal; font-variant-caps: normal; font-weight: 400; letter-spacing: normal; orphans: 2; text-align: center; text-indent: 0px; text-transform: none; widows: 2; word-spacing: 0px; -webkit-text-stroke-width: 0px; background-color: rgb(251, 251, 251); text-decoration-thickness: initial; text-decoration-style: initial; text-decoration-color: initial; float: none; display: inline !important;&quot;&gt;云下服务，走tproxy&lt;/span&gt;" style="text;whiteSpace=wrap;html=1;fontSize=8;" vertex="1" parent="1">
          <mxGeometry x="500" y="760" width="140" height="50" as="geometry" />
        </mxCell>
      </root>
    </mxGraphModel>
  </diagram>
</mxfile>
